<?xml version="1.0" encoding="utf-8"?>
<!-- Generator: Adobe Illustrator 23.0.4, SVG Export Plug-In . SVG Version: 6.00 Build 0)  -->
<svg version="1.1" xmlns="http://www.w3.org/2000/svg" xmlns:xlink="http://www.w3.org/1999/xlink" x="0px" y="0px"
	 viewBox="0 0 16 16" style="enable-background:new 0 0 16 16;" xml:space="preserve">
<style type="text/css">
	.st0{fill-rule:evenodd;clip-rule:evenodd;fill:#192838;}
	.st1{fill:#192838;}
</style>
<path class="st0" d="M6.5,12c3,0,5.5-2.5,5.5-5.5S9.5,1,6.5,1S1,3.5,1,6.5S3.5,12,6.5,12z M13,6.5c0,3.6-2.9,6.5-6.5,6.5
	C2.9,13,0,10.1,0,6.5C0,2.9,2.9,0,6.5,0C10.1,0,13,2.9,13,6.5z"/>
<path class="st1" d="M10.3,11.7c0,0,0.1,0.1,0.1,0.1l3.9,3.9c0.4,0.4,1,0.4,1.4,0c0.4-0.4,0.4-1,0-1.4l-3.9-3.9c0,0-0.1-0.1-0.1-0.1
	C11.3,10.9,10.9,11.3,10.3,11.7z"/>
</svg>
